<svg xmlns="http://www.w3.org/2000/svg" xmlns:xlink="http://www.w3.org/1999/xlink" width="500" zoomAndPan="magnify" viewBox="0 0 375 374.999991" height="500" preserveAspectRatio="xMidYMid meet" version="1.0"><defs><clipPath id="ba1aecaabb"><path d="M 112.5 112.5 L 262.5 112.5 L 262.5 262.5 L 112.5 262.5 Z M 112.5 112.5 " clip-rule="nonzero"/></clipPath><clipPath id="c8a9554956"><path d="M 100.839844 95.386719 L 285.339844 95.386719 L 285.339844 279.886719 L 100.839844 279.886719 Z M 100.839844 95.386719 " clip-rule="nonzero"/></clipPath><clipPath id="747f25f856"><path d="M 90.539062 90.539062 L 284.789062 90.539062 L 284.789062 284.789062 L 90.539062 284.789062 Z M 90.539062 90.539062 " clip-rule="nonzero"/></clipPath></defs><path fill="#5e17eb" d="M 363.699219 123.457031 C 362.09375 119.058594 360.328125 114.722656 358.402344 110.453125 C 356.472656 106.1875 354.386719 101.996094 352.148438 97.882812 C 349.90625 93.769531 347.511719 89.746094 344.96875 85.8125 C 342.425781 81.878906 339.742188 78.046875 336.910156 74.316406 C 334.082031 70.582031 331.113281 66.960938 328.011719 63.453125 C 324.914062 59.941406 321.683594 56.554688 318.328125 53.285156 C 314.972656 50.015625 311.5 46.878906 307.910156 43.871094 C 304.320312 40.863281 300.625 37.992188 296.820312 35.261719 C 293.015625 32.53125 289.113281 29.945312 285.113281 27.503906 C 281.113281 25.066406 277.03125 22.78125 272.859375 20.648438 C 268.691406 18.515625 264.445312 16.539062 260.128906 14.726562 C 255.8125 12.910156 251.433594 11.257812 246.992188 9.769531 C 242.550781 8.285156 238.058594 6.964844 233.519531 5.8125 C 228.976562 4.664062 224.402344 3.683594 219.789062 2.875 C 215.175781 2.066406 210.539062 1.433594 205.875 0.972656 C 201.214844 0.511719 196.542969 0.222656 191.859375 0.113281 C 190.40625 0.078125 188.949219 0.0585938 187.484375 0.0585938 C 181.765625 0.0507812 176.054688 0.304688 170.359375 0.820312 C 164.660156 1.335938 159 2.113281 153.375 3.152344 C 147.75 4.1875 142.183594 5.480469 136.675781 7.03125 C 131.167969 8.578125 125.742188 10.375 120.402344 12.425781 C 115.058594 14.472656 109.824219 16.757812 104.691406 19.289062 C 99.558594 21.816406 94.554688 24.574219 89.675781 27.5625 C 84.800781 30.550781 80.070312 33.757812 75.484375 37.179688 C 70.902344 40.601562 66.484375 44.230469 62.234375 48.058594 C 24.058594 82.371094 0.0429688 132.128906 0.0429688 187.5 C 0.046875 194.777344 0.46875 202.027344 1.308594 209.253906 C 1.878906 214.199219 2.648438 219.113281 3.613281 223.996094 C 4.578125 228.878906 5.734375 233.714844 7.085938 238.507812 C 8.4375 243.296875 9.980469 248.027344 11.710938 252.691406 C 13.441406 257.359375 15.355469 261.953125 17.453125 266.464844 C 19.546875 270.980469 21.824219 275.402344 24.273438 279.734375 C 26.722656 284.070312 29.34375 288.296875 32.132812 292.417969 C 34.921875 296.542969 37.871094 300.546875 40.980469 304.433594 C 44.089844 308.320312 47.351562 312.078125 50.761719 315.703125 C 84.957031 352.160156 133.558594 374.941406 187.484375 374.941406 C 195.210938 374.953125 202.90625 374.488281 210.574219 373.542969 C 218.242188 372.597656 225.824219 371.183594 233.316406 369.296875 C 240.808594 367.410156 248.15625 365.066406 255.355469 362.269531 C 262.558594 359.472656 269.558594 356.238281 276.355469 352.570312 C 335.046875 320.90625 374.925781 258.863281 374.925781 187.5 C 374.9375 176.582031 374.003906 165.742188 372.117188 154.988281 C 370.230469 144.234375 367.421875 133.722656 363.699219 123.457031 Z M 363.699219 123.457031 " fill-opacity="1" fill-rule="nonzero"/><path fill="#5e17eb" d="M 318.644531 168.21875 C 315.410156 179.621094 315.894531 191.972656 311.496094 202.976562 C 302.078125 226.558594 268.339844 236.039062 248.015625 220.820312 C 227.34375 205.339844 225.652344 175.808594 219.96875 150.613281 C 217.460938 139.53125 213.886719 128.804688 209.25 118.433594 C 204.609375 108.0625 198.996094 98.25 192.410156 88.992188 C 187.8125 82.539062 182.441406 76.160156 175.089844 73.195312 C 163.472656 68.507812 150.296875 73.539062 139.375 79.683594 C 127.554688 86.335938 116.28125 94.589844 108.640625 105.800781 C 100.996094 117.007812 97.402344 131.5625 101.621094 144.453125 C 104.660156 153.730469 111.417969 161.527344 113.902344 170.96875 C 119.8125 193.402344 99.785156 214.488281 79.042969 224.878906 C 58.300781 235.269531 34.164062 241.113281 18.65625 258.367188 C 17.546875 259.597656 16.503906 260.867188 15.523438 262.175781 C 19.816406 272.039062 24.921875 281.46875 30.839844 290.453125 C 36.753906 299.441406 43.394531 307.859375 50.761719 315.703125 C 81.25 304.421875 112.207031 289.257812 124.660156 259.957031 C 128.617188 250.636719 130.363281 240.445312 134.890625 231.386719 C 139.414062 222.328125 147.929688 214.128906 158.054688 214.316406 C 163.390625 214.417969 168.40625 216.832031 173.007812 219.539062 C 177.59375 222.253906 181.953125 225.296875 186.085938 228.667969 C 190.214844 232.039062 194.070312 235.699219 197.648438 239.652344 C 201.226562 243.601562 204.492188 247.796875 207.441406 252.238281 C 210.386719 256.683594 212.988281 261.320312 215.238281 266.152344 C 227.984375 293.695312 230.746094 329.136719 256.335938 345.453125 C 262.425781 349.332031 269.257812 351.605469 276.355469 352.570312 C 335.046875 320.90625 374.925781 258.863281 374.925781 187.5 C 374.9375 176.582031 374.003906 165.742188 372.117188 154.988281 C 370.230469 144.234375 367.421875 133.722656 363.699219 123.460938 C 361.679688 124.222656 359.679688 125.039062 357.710938 125.941406 C 339.707031 134.183594 324.050781 149.167969 318.644531 168.21875 Z M 318.644531 168.21875 " fill-opacity="1" fill-rule="nonzero"/><path fill="#5e17eb" d="M 62.0625 123.269531 C 63.871094 140.824219 63.789062 158.367188 61.816406 175.90625 C 60.949219 183.640625 59.445312 191.882812 53.980469 197.429688 C 49.363281 202.113281 42.6875 204.050781 36.253906 205.433594 C 24.734375 207.902344 13.085938 209.175781 1.308594 209.253906 C 3.421875 227.597656 8.160156 245.238281 15.523438 262.175781 C 16.507812 260.871094 17.550781 259.601562 18.65625 258.367188 C 34.164062 241.113281 58.300781 235.269531 79.042969 224.878906 C 99.785156 214.488281 119.8125 193.402344 113.902344 170.96875 C 111.417969 161.527344 104.660156 153.730469 101.621094 144.453125 C 97.402344 131.5625 100.996094 117.007812 108.640625 105.800781 C 116.28125 94.589844 127.554688 86.335938 139.375 79.683594 C 150.296875 73.539062 163.472656 68.507812 175.089844 73.195312 C 182.441406 76.160156 187.8125 82.539062 192.410156 88.992188 C 198.996094 98.25 204.609375 108.0625 209.25 118.433594 C 213.886719 128.804688 217.460938 139.53125 219.96875 150.613281 C 225.652344 175.808594 227.34375 205.339844 248.015625 220.820312 C 268.339844 236.039062 302.078125 226.558594 311.496094 202.976562 C 315.894531 191.972656 315.410156 179.621094 318.644531 168.21875 C 324.050781 149.167969 339.707031 134.183594 357.710938 125.941406 C 359.679688 125.039062 361.679688 124.222656 363.699219 123.457031 C 360.882812 115.738281 357.574219 108.234375 353.777344 100.949219 C 349.976562 93.664062 345.71875 86.65625 340.996094 79.929688 C 336.277344 73.203125 331.140625 66.8125 325.582031 60.757812 C 320.023438 54.707031 314.09375 49.042969 307.792969 43.769531 C 304.277344 46.6875 301.410156 50.140625 299.1875 54.128906 C 295.871094 60.175781 294.476562 67.054688 293.121094 73.816406 C 290.773438 85.535156 288.425781 97.257812 286.082031 108.976562 C 285.050781 114.121094 283.851562 119.589844 280.113281 123.273438 C 275.257812 128.054688 267.476562 128.375 260.871094 126.710938 C 247.703125 123.390625 236.914062 113.589844 229.550781 102.179688 C 222.191406 90.765625 217.8125 77.734375 213.507812 64.855469 C 206.289062 43.273438 199.074219 21.695312 191.859375 0.113281 C 190.40625 0.078125 188.949219 0.0585938 187.484375 0.0585938 C 181.765625 0.0507812 176.054688 0.304688 170.359375 0.820312 C 164.660156 1.335938 159 2.113281 153.375 3.152344 C 147.75 4.1875 142.183594 5.480469 136.675781 7.03125 C 131.167969 8.578125 125.742188 10.378906 120.402344 12.425781 C 115.058594 14.472656 109.824219 16.757812 104.691406 19.289062 C 99.558594 21.816406 94.554688 24.574219 89.675781 27.5625 C 84.800781 30.550781 80.070312 33.757812 75.484375 37.179688 C 70.902344 40.601562 66.484375 44.230469 62.234375 48.058594 C 61.058594 51.277344 60.101562 54.5625 59.363281 57.910156 C 54.667969 79.320312 59.816406 101.464844 62.0625 123.269531 Z M 62.0625 123.269531 " fill-opacity="1" fill-rule="nonzero"/><path fill="#141115" d="M 187.484375 364.875 C 89.679688 364.875 10.109375 285.304688 10.109375 187.5 C 10.109375 89.695312 89.679688 10.125 187.484375 10.125 C 285.289062 10.125 364.859375 89.695312 364.859375 187.5 C 364.859375 285.304688 285.289062 364.875 187.484375 364.875 Z M 187.484375 11.527344 C 90.453125 11.527344 11.511719 90.46875 11.511719 187.5 C 11.511719 284.53125 90.453125 363.472656 187.484375 363.472656 C 284.515625 363.472656 363.457031 284.53125 363.457031 187.5 C 363.457031 90.46875 284.515625 11.527344 187.484375 11.527344 Z M 187.484375 11.527344 " fill-opacity="1" fill-rule="nonzero"/><path fill="#141115" d="M 187.484375 352.433594 C 96.539062 352.433594 22.550781 278.445312 22.550781 187.5 C 22.550781 96.554688 96.539062 22.566406 187.484375 22.566406 C 278.429688 22.566406 352.417969 96.554688 352.417969 187.5 C 352.417969 278.445312 278.429688 352.433594 187.484375 352.433594 Z M 187.484375 23.96875 C 97.3125 23.96875 23.953125 97.328125 23.953125 187.5 C 23.953125 277.671875 97.3125 351.03125 187.484375 351.03125 C 277.65625 351.03125 351.015625 277.671875 351.015625 187.5 C 351.015625 97.328125 277.65625 23.96875 187.484375 23.96875 Z M 187.484375 23.96875 " fill-opacity="1" fill-rule="nonzero"/><path fill="#141115" d="M 187.484375 339.332031 C 103.761719 339.332031 35.652344 271.222656 35.652344 187.5 C 35.652344 103.777344 103.761719 35.667969 187.484375 35.667969 C 271.207031 35.667969 339.320312 103.777344 339.320312 187.5 C 339.320312 271.222656 271.207031 339.332031 187.484375 339.332031 Z M 187.484375 37.070312 C 104.539062 37.070312 37.054688 104.550781 37.054688 187.5 C 37.054688 270.449219 104.539062 337.929688 187.484375 337.929688 C 270.433594 337.929688 337.917969 270.449219 337.917969 187.5 C 337.917969 104.550781 270.433594 37.070312 187.484375 37.070312 Z M 187.484375 37.070312 " fill-opacity="1" fill-rule="nonzero"/><path fill="#141115" d="M 187.484375 325.902344 C 111.167969 325.902344 49.082031 263.816406 49.082031 187.5 C 49.082031 111.183594 111.167969 49.097656 187.484375 49.097656 C 263.800781 49.097656 325.886719 111.183594 325.886719 187.5 C 325.886719 263.816406 263.800781 325.902344 187.484375 325.902344 Z M 187.484375 50.5 C 111.941406 50.5 50.484375 111.957031 50.484375 187.5 C 50.484375 263.042969 111.941406 324.5 187.484375 324.5 C 263.027344 324.5 324.484375 263.042969 324.484375 187.5 C 324.484375 111.957031 263.027344 50.5 187.484375 50.5 Z M 187.484375 50.5 " fill-opacity="1" fill-rule="nonzero"/><path fill="#141115" d="M 187.484375 313.128906 C 118.214844 313.128906 61.855469 256.773438 61.855469 187.5 C 61.855469 118.226562 118.214844 61.871094 187.484375 61.871094 C 256.757812 61.871094 313.113281 118.226562 313.113281 187.5 C 313.113281 256.773438 256.757812 313.128906 187.484375 313.128906 Z M 187.484375 63.273438 C 118.988281 63.273438 63.257812 119 63.257812 187.5 C 63.257812 255.996094 118.988281 311.726562 187.484375 311.726562 C 255.984375 311.726562 311.710938 255.996094 311.710938 187.5 C 311.710938 119 255.984375 63.273438 187.484375 63.273438 Z M 187.484375 63.273438 " fill-opacity="1" fill-rule="nonzero"/><path fill="#141115" d="M 187.484375 300.65625 C 125.089844 300.65625 74.328125 249.894531 74.328125 187.5 C 74.328125 125.105469 125.089844 74.34375 187.484375 74.34375 C 249.878906 74.34375 300.640625 125.105469 300.640625 187.5 C 300.640625 249.894531 249.878906 300.65625 187.484375 300.65625 Z M 187.484375 75.746094 C 125.863281 75.746094 75.730469 125.878906 75.730469 187.5 C 75.730469 249.121094 125.863281 299.253906 187.484375 299.253906 C 249.105469 299.253906 299.238281 249.121094 299.238281 187.5 C 299.238281 125.878906 249.105469 75.746094 187.484375 75.746094 Z M 187.484375 75.746094 " fill-opacity="1" fill-rule="nonzero"/><path fill="#141115" d="M 187.484375 287.421875 C 132.386719 287.421875 87.5625 242.59375 87.5625 187.5 C 87.5625 132.402344 132.386719 87.578125 187.484375 87.578125 C 242.582031 87.578125 287.40625 132.402344 287.40625 187.5 C 287.40625 242.59375 242.582031 287.421875 187.484375 287.421875 Z M 187.484375 88.980469 C 133.164062 88.980469 88.964844 133.175781 88.964844 187.5 C 88.964844 241.824219 133.164062 286.015625 187.484375 286.015625 C 241.808594 286.015625 286.003906 241.824219 286.003906 187.5 C 286.003906 133.175781 241.808594 88.980469 187.484375 88.980469 Z M 187.484375 88.980469 " fill-opacity="1" fill-rule="nonzero"/><path fill="#1a1a1a" d="M 251.863281 133.640625 C 249.261719 130.515625 246.445312 127.597656 243.414062 124.886719 C 240.386719 122.175781 237.175781 119.695312 233.78125 117.453125 C 230.390625 115.210938 226.851562 113.230469 223.171875 111.503906 C 219.488281 109.777344 215.699219 108.332031 211.804688 107.160156 L 211.804688 107.132812 C 203.875 104.734375 195.769531 103.539062 187.484375 103.542969 C 141.117188 103.542969 103.527344 141.132812 103.527344 187.5 C 103.527344 188.875 103.5625 190.246094 103.632812 191.617188 C 103.699219 192.992188 103.800781 194.359375 103.9375 195.726562 C 104.074219 197.09375 104.242188 198.457031 104.445312 199.816406 C 104.644531 201.175781 104.882812 202.527344 105.148438 203.875 C 105.417969 205.222656 105.71875 206.5625 106.054688 207.894531 C 106.390625 209.226562 106.753906 210.550781 107.15625 211.867188 C 107.554688 213.179688 107.984375 214.484375 108.449219 215.777344 C 108.914062 217.070312 109.40625 218.351562 109.933594 219.621094 C 110.460938 220.890625 111.015625 222.144531 111.605469 223.386719 C 112.191406 224.628906 112.808594 225.855469 113.457031 227.066406 C 114.105469 228.277344 114.78125 229.472656 115.488281 230.652344 C 116.195312 231.828125 116.929688 232.988281 117.695312 234.132812 C 118.457031 235.273438 119.246094 236.398438 120.066406 237.5 C 120.886719 238.601562 121.730469 239.6875 122.601562 240.746094 C 123.472656 241.808594 124.371094 242.851562 125.292969 243.867188 C 126.214844 244.886719 127.164062 245.878906 128.132812 246.851562 C 129.105469 247.824219 130.101562 248.769531 131.117188 249.691406 C 132.136719 250.613281 133.175781 251.511719 134.238281 252.382812 C 135.300781 253.253906 136.382812 254.101562 137.484375 254.917969 C 138.589844 255.738281 139.710938 256.527344 140.855469 257.292969 C 141.996094 258.054688 143.15625 258.789062 144.335938 259.496094 C 145.511719 260.203125 146.707031 260.878906 147.917969 261.527344 C 149.128906 262.175781 150.355469 262.792969 151.597656 263.382812 C 152.839844 263.96875 154.09375 264.527344 155.363281 265.050781 C 156.632812 265.578125 157.914062 266.074219 159.207031 266.535156 C 160.5 267 161.804688 267.429688 163.121094 267.832031 C 164.433594 268.230469 165.757812 268.597656 167.089844 268.929688 C 168.421875 269.265625 169.761719 269.566406 171.109375 269.835938 C 172.457031 270.105469 173.808594 270.339844 175.167969 270.542969 C 176.527344 270.742188 177.890625 270.914062 179.257812 271.046875 C 180.625 271.183594 181.996094 271.285156 183.367188 271.355469 C 184.738281 271.421875 186.113281 271.457031 187.484375 271.457031 C 233.855469 271.457031 271.441406 233.867188 271.441406 187.5 C 271.453125 182.613281 271.035156 177.761719 270.191406 172.949219 C 269.347656 168.132812 268.089844 163.429688 266.421875 158.835938 C 264.75 154.242188 262.695312 149.832031 260.25 145.601562 C 257.804688 141.367188 255.007812 137.382812 251.863281 133.640625 Z M 176.9375 187.5 C 176.9375 186.808594 177.003906 186.121094 177.140625 185.441406 C 177.277344 184.761719 177.476562 184.105469 177.742188 183.464844 C 178.007812 182.824219 178.332031 182.214844 178.714844 181.640625 C 179.101562 181.0625 179.539062 180.53125 180.027344 180.042969 C 180.515625 179.550781 181.050781 179.113281 181.625 178.730469 C 182.203125 178.34375 182.808594 178.019531 183.449219 177.753906 C 184.089844 177.492188 184.75 177.289062 185.429688 177.15625 C 186.105469 177.019531 186.792969 176.953125 187.484375 176.953125 C 188.179688 176.953125 188.863281 177.019531 189.542969 177.15625 C 190.222656 177.289062 190.882812 177.492188 191.523438 177.753906 C 192.160156 178.019531 192.769531 178.34375 193.34375 178.730469 C 193.921875 179.113281 194.453125 179.550781 194.945312 180.042969 C 195.433594 180.53125 195.871094 181.0625 196.253906 181.640625 C 196.640625 182.214844 196.964844 182.824219 197.230469 183.464844 C 197.496094 184.105469 197.695312 184.761719 197.828125 185.441406 C 197.964844 186.121094 198.03125 186.808594 198.03125 187.5 C 198.03125 188.191406 197.964844 188.878906 197.828125 189.558594 C 197.695312 190.238281 197.496094 190.894531 197.230469 191.535156 C 196.964844 192.175781 196.640625 192.785156 196.253906 193.359375 C 195.871094 193.933594 195.433594 194.46875 194.945312 194.957031 C 194.453125 195.449219 193.921875 195.886719 193.34375 196.269531 C 192.769531 196.65625 192.160156 196.980469 191.523438 197.246094 C 190.882812 197.507812 190.222656 197.710938 189.542969 197.84375 C 188.863281 197.980469 188.179688 198.046875 187.484375 198.046875 C 186.792969 198.046875 186.105469 197.980469 185.425781 197.847656 C 184.746094 197.710938 184.085938 197.511719 183.449219 197.246094 C 182.808594 196.984375 182.199219 196.660156 181.621094 196.273438 C 181.046875 195.890625 180.515625 195.453125 180.023438 194.960938 C 179.535156 194.472656 179.097656 193.9375 178.710938 193.363281 C 178.328125 192.785156 178.003906 192.179688 177.738281 191.539062 C 177.472656 190.898438 177.273438 190.238281 177.140625 189.558594 C 177.003906 188.878906 176.9375 188.191406 176.9375 187.5 Z M 176.9375 187.5 " fill-opacity="1" fill-rule="nonzero"/><path fill="#5e17eb" d="M 187.484375 256.640625 C 149.359375 256.640625 118.34375 225.621094 118.34375 187.5 C 118.34375 149.375 149.359375 118.359375 187.484375 118.359375 C 225.609375 118.359375 256.625 149.375 256.625 187.5 C 256.625 225.621094 225.609375 256.640625 187.484375 256.640625 Z M 187.484375 121.164062 C 150.910156 121.164062 121.148438 150.921875 121.148438 187.5 C 121.148438 224.078125 150.910156 253.835938 187.484375 253.835938 C 224.0625 253.835938 253.820312 224.078125 253.820312 187.5 C 253.820312 150.921875 224.0625 121.164062 187.484375 121.164062 Z M 187.484375 121.164062 " fill-opacity="1" fill-rule="nonzero"/><g clip-path="url(#ba1aecaabb)"><path fill="#ffffff" d="M 262.5 187.5 C 262.5 188.726562 262.46875 189.953125 262.410156 191.179688 C 262.347656 192.40625 262.257812 193.628906 262.140625 194.851562 C 262.019531 196.074219 261.867188 197.289062 261.6875 198.503906 C 261.507812 199.71875 261.296875 200.929688 261.058594 202.132812 C 260.820312 203.335938 260.550781 204.53125 260.253906 205.722656 C 259.953125 206.914062 259.625 208.097656 259.269531 209.269531 C 258.914062 210.445312 258.527344 211.609375 258.117188 212.765625 C 257.703125 213.921875 257.261719 215.066406 256.789062 216.203125 C 256.320312 217.335938 255.824219 218.457031 255.300781 219.566406 C 254.773438 220.675781 254.222656 221.773438 253.644531 222.855469 C 253.066406 223.9375 252.460938 225.003906 251.828125 226.058594 C 251.199219 227.109375 250.542969 228.148438 249.859375 229.167969 C 249.179688 230.1875 248.472656 231.191406 247.742188 232.175781 C 247.007812 233.164062 246.253906 234.128906 245.476562 235.078125 C 244.695312 236.027344 243.894531 236.957031 243.070312 237.867188 C 242.246094 238.777344 241.402344 239.664062 240.53125 240.53125 C 239.664062 241.402344 238.777344 242.246094 237.867188 243.070312 C 236.957031 243.894531 236.027344 244.695312 235.078125 245.476562 C 234.128906 246.253906 233.164062 247.007812 232.175781 247.742188 C 231.191406 248.472656 230.1875 249.179688 229.167969 249.859375 C 228.148438 250.542969 227.109375 251.199219 226.058594 251.828125 C 225.003906 252.460938 223.9375 253.066406 222.855469 253.644531 C 221.773438 254.222656 220.675781 254.773438 219.566406 255.300781 C 218.457031 255.824219 217.335938 256.320312 216.203125 256.789062 C 215.066406 257.261719 213.921875 257.703125 212.765625 258.117188 C 211.609375 258.527344 210.445312 258.914062 209.269531 259.269531 C 208.097656 259.625 206.914062 259.953125 205.722656 260.253906 C 204.53125 260.550781 203.335938 260.820312 202.132812 261.058594 C 200.929688 261.296875 199.71875 261.507812 198.503906 261.6875 C 197.289062 261.867188 196.074219 262.019531 194.851562 262.140625 C 193.628906 262.257812 192.40625 262.347656 191.179688 262.410156 C 189.953125 262.46875 188.726562 262.5 187.5 262.5 C 186.273438 262.5 185.046875 262.46875 183.820312 262.410156 C 182.59375 262.347656 181.371094 262.257812 180.148438 262.140625 C 178.925781 262.019531 177.710938 261.867188 176.496094 261.6875 C 175.28125 261.507812 174.070312 261.296875 172.867188 261.058594 C 171.664062 260.820312 170.46875 260.550781 169.277344 260.253906 C 168.085938 259.953125 166.902344 259.625 165.730469 259.269531 C 164.554688 258.914062 163.390625 258.527344 162.234375 258.117188 C 161.078125 257.703125 159.933594 257.261719 158.796875 256.789062 C 157.664062 256.320312 156.542969 255.824219 155.433594 255.300781 C 154.324219 254.773438 153.226562 254.222656 152.144531 253.644531 C 151.0625 253.066406 149.996094 252.460938 148.941406 251.828125 C 147.890625 251.199219 146.851562 250.542969 145.832031 249.859375 C 144.8125 249.179688 143.808594 248.472656 142.824219 247.742188 C 141.835938 247.007812 140.871094 246.253906 139.921875 245.476562 C 138.972656 244.695312 138.042969 243.894531 137.132812 243.070312 C 136.222656 242.246094 135.335938 241.402344 134.46875 240.53125 C 133.597656 239.664062 132.753906 238.777344 131.929688 237.867188 C 131.105469 236.957031 130.304688 236.027344 129.523438 235.078125 C 128.746094 234.128906 127.992188 233.164062 127.257812 232.175781 C 126.527344 231.191406 125.820312 230.1875 125.140625 229.167969 C 124.457031 228.148438 123.800781 227.109375 123.171875 226.058594 C 122.539062 225.003906 121.933594 223.9375 121.355469 222.855469 C 120.777344 221.773438 120.226562 220.675781 119.699219 219.566406 C 119.175781 218.457031 118.679688 217.335938 118.210938 216.203125 C 117.738281 215.066406 117.296875 213.921875 116.882812 212.765625 C 116.46875 211.609375 116.085938 210.445312 115.730469 209.269531 C 115.375 208.097656 115.046875 206.914062 114.746094 205.722656 C 114.449219 204.53125 114.179688 203.335938 113.941406 202.132812 C 113.703125 200.929688 113.492188 199.71875 113.3125 198.503906 C 113.132812 197.289062 112.980469 196.074219 112.859375 194.851562 C 112.742188 193.628906 112.652344 192.40625 112.589844 191.179688 C 112.53125 189.953125 112.5 188.726562 112.5 187.5 C 112.5 186.273438 112.53125 185.046875 112.589844 183.820312 C 112.652344 182.59375 112.742188 181.371094 112.859375 180.148438 C 112.980469 178.925781 113.132812 177.710938 113.3125 176.496094 C 113.492188 175.28125 113.703125 174.070312 113.941406 172.867188 C 114.179688 171.664062 114.449219 170.46875 114.746094 169.277344 C 115.046875 168.085938 115.375 166.902344 115.730469 165.730469 C 116.085938 164.554688 116.46875 163.390625 116.882812 162.234375 C 117.296875 161.078125 117.738281 159.933594 118.210938 158.796875 C 118.679688 157.664062 119.175781 156.542969 119.699219 155.433594 C 120.226562 154.324219 120.777344 153.226562 121.355469 152.144531 C 121.933594 151.0625 122.539062 149.996094 123.171875 148.941406 C 123.800781 147.890625 124.457031 146.851562 125.140625 145.832031 C 125.820312 144.8125 126.527344 143.808594 127.257812 142.824219 C 127.992188 141.835938 128.746094 140.871094 129.523438 139.921875 C 130.304688 138.972656 131.105469 138.042969 131.929688 137.132812 C 132.753906 136.222656 133.597656 135.335938 134.46875 134.46875 C 135.335938 133.597656 136.222656 132.753906 137.132812 131.929688 C 138.042969 131.105469 138.972656 130.304688 139.921875 129.523438 C 140.871094 128.746094 141.835938 127.992188 142.824219 127.257812 C 143.808594 126.527344 144.8125 125.820312 145.832031 125.140625 C 146.851562 124.457031 147.890625 123.800781 148.941406 123.171875 C 149.996094 122.539062 151.0625 121.933594 152.144531 121.355469 C 153.226562 120.777344 154.324219 120.226562 155.433594 119.699219 C 156.542969 119.175781 157.664062 118.679688 158.796875 118.210938 C 159.933594 117.738281 161.078125 117.296875 162.234375 116.882812 C 163.390625 116.46875 164.554688 116.085938 165.730469 115.730469 C 166.902344 115.375 168.085938 115.046875 169.277344 114.746094 C 170.46875 114.449219 171.664062 114.179688 172.867188 113.941406 C 174.070312 113.703125 175.28125 113.492188 176.496094 113.3125 C 177.710938 113.132812 178.925781 112.980469 180.148438 112.859375 C 181.371094 112.742188 182.59375 112.652344 183.820312 112.589844 C 185.046875 112.53125 186.273438 112.5 187.5 112.5 C 188.726562 112.5 189.953125 112.53125 191.179688 112.589844 C 192.40625 112.652344 193.628906 112.742188 194.851562 112.859375 C 196.074219 112.980469 197.289062 113.132812 198.503906 113.3125 C 199.71875 113.492188 200.929688 113.703125 202.132812 113.941406 C 203.335938 114.179688 204.53125 114.449219 205.722656 114.746094 C 206.914062 115.046875 208.097656 115.375 209.269531 115.730469 C 210.445312 116.085938 211.609375 116.46875 212.765625 116.882812 C 213.921875 117.296875 215.066406 117.738281 216.203125 118.210938 C 217.335938 118.679688 218.457031 119.175781 219.566406 119.699219 C 220.675781 120.226562 221.773438 120.777344 222.855469 121.355469 C 223.9375 121.933594 225.003906 122.539062 226.058594 123.171875 C 227.109375 123.800781 228.148438 124.457031 229.167969 125.140625 C 230.1875 125.820312 231.191406 126.527344 232.175781 127.257812 C 233.164062 127.992188 234.128906 128.746094 235.078125 129.523438 C 236.027344 130.304688 236.957031 131.105469 237.867188 131.929688 C 238.777344 132.753906 239.664062 133.597656 240.53125 134.46875 C 241.402344 135.335938 242.246094 136.222656 243.070312 137.132812 C 243.894531 138.042969 244.695312 138.972656 245.476562 139.921875 C 246.253906 140.871094 247.007812 141.835938 247.742188 142.824219 C 248.472656 143.808594 249.179688 144.8125 249.859375 145.832031 C 250.542969 146.851562 251.199219 147.890625 251.828125 148.941406 C 252.460938 149.996094 253.066406 151.0625 253.644531 152.144531 C 254.222656 153.226562 254.773438 154.324219 255.300781 155.433594 C 255.824219 156.542969 256.320312 157.664062 256.789062 158.796875 C 257.261719 159.933594 257.703125 161.078125 258.117188 162.234375 C 258.527344 163.390625 258.914062 164.554688 259.269531 165.730469 C 259.625 166.902344 259.953125 168.085938 260.253906 169.277344 C 260.550781 170.46875 260.820312 171.664062 261.058594 172.867188 C 261.296875 174.070312 261.507812 175.28125 261.6875 176.496094 C 261.867188 177.710938 262.019531 178.925781 262.140625 180.148438 C 262.257812 181.371094 262.347656 182.59375 262.410156 183.820312 C 262.46875 185.046875 262.5 186.273438 262.5 187.5 Z M 262.5 187.5 " fill-opacity="1" fill-rule="nonzero"/></g><g clip-path="url(#c8a9554956)"><path fill="#000000" d="M 208.5625 204.523438 C 208.5625 207.855469 207.394531 210.5625 205.082031 212.554688 C 202.792969 214.535156 199.089844 215.496094 193.765625 215.496094 L 177.8125 215.496094 L 177.8125 194.105469 L 193.703125 194.105469 C 199.101562 194.105469 202.828125 195.027344 205.105469 196.910156 C 207.40625 198.828125 208.574219 201.386719 208.574219 204.511719 Z M 201.796875 176.160156 C 203.824219 174.375 204.859375 171.792969 204.859375 168.507812 C 204.859375 165.433594 203.824219 162.972656 201.785156 161.203125 C 199.765625 159.457031 196.496094 158.609375 191.773438 158.609375 L 177.800781 158.609375 L 177.800781 178.792969 L 191.585938 178.792969 C 196.445312 178.792969 199.792969 177.929688 201.796875 176.160156 Z M 285.324219 187.636719 C 285.324219 238.582031 244.023438 279.886719 193.074219 279.886719 C 142.128906 279.886719 100.839844 238.582031 100.839844 187.636719 C 100.839844 136.6875 142.140625 95.386719 193.089844 95.386719 C 244.035156 95.386719 285.339844 136.6875 285.339844 187.636719 Z M 235.03125 207.769531 C 235.03125 202.136719 233.53125 197.414062 230.554688 193.722656 C 227.578125 190.035156 222.816406 187.378906 216.410156 185.828125 L 212.324219 184.84375 L 216.296875 183.464844 C 220.492188 182.015625 223.703125 180.035156 225.84375 177.574219 C 229.066406 173.871094 230.703125 169.359375 230.703125 164.167969 C 230.703125 157.882812 228.460938 152.753906 223.863281 148.496094 C 219.300781 144.277344 212.597656 142.125 203.949219 142.125 L 151.132812 142.125 L 151.132812 233.097656 L 199.742188 233.097656 C 201.808594 233.097656 206.113281 232.664062 212.523438 231.828125 C 217.21875 231.214844 220.761719 230.242188 223.027344 228.925781 C 226.730469 226.800781 229.679688 223.859375 231.820312 220.195312 C 233.949219 216.539062 235.03125 212.347656 235.03125 207.746094 Z M 235.03125 207.769531 " fill-opacity="1" fill-rule="nonzero"/></g><g clip-path="url(#747f25f856)"><path fill="#ffffff" d="M 187.496094 90.539062 C 133.925781 90.539062 90.539062 133.925781 90.539062 187.496094 C 90.539062 241.0625 133.925781 284.449219 187.496094 284.449219 C 241.0625 284.449219 284.449219 241.0625 284.449219 187.496094 C 284.449219 133.925781 241.0625 90.539062 187.496094 90.539062 Z M 187.496094 265.058594 C 144.640625 265.058594 109.929688 230.347656 109.929688 187.496094 C 109.929688 144.640625 144.640625 109.929688 187.496094 109.929688 C 230.347656 109.929688 265.058594 144.640625 265.058594 187.496094 C 265.058594 230.347656 230.347656 265.058594 187.496094 265.058594 Z M 187.496094 265.058594 " fill-opacity="1" fill-rule="nonzero"/></g></svg>